Crispy Narrow Medium-MinGrade-minXOPQ.ufo
<glyph name="asterisk" format="2">
  <advance width="171"/>
  <unicode hex="002A"/>
  <outline>
    <contour>
      <point x="25" y="1423" type="line"/>
      <point x="85" y="1492" type="line"/>
      <point x="145" y="1423" type="line"/>
      <point x="162" y="1442" type="line"/>
      <point x="94" y="1508" type="line"/>
      <point x="176" y="1534" type="line"/>
      <point x="168" y="1554" type="line"/>
      <point x="86" y="1528" type="line"/>
      <point x="86" y="1606" type="line"/>
      <point x="84" y="1606" type="line"/>
      <point x="84" y="1528" type="line"/>
      <point x="1" y="1554" type="line"/>
      <point x="-7" y="1533" type="line"/>
      <point x="77" y="1508" type="line"/>
      <point x="10" y="1443" type="line"/>
    </contour>
  </outline>
</glyph>
<glyph name="three" format="2">
  <advance width="205"/>
  <unicode hex="0033"/>
  <outline>
    <contour>
      <point x="40" y="0" type="line" identifier="O9abUc1nmN"/>
      <point x="160" y="0" type="line" identifier="kMJYMTfXCq"/>
      <point x="160" y="853" type="line" identifier="su2XmdS8e8"/>
      <point x="114" y="853" type="line" identifier="JQaOzDQqlF"/>
      <point x="145" y="994" type="line"/>
      <point x="145" y="1600" type="line" identifier="xg8x2Ki40p"/>
      <point x="49" y="1600" type="line" identifier="pE1XSRiy68"/>
      <point x="49" y="1133" type="line" identifier="5lNstGRcSF"/>
      <point x="51" y="1133" type="line" identifier="AcE5xKDZfE"/>
      <point x="51" y="1492" type="line" identifier="7ogBYufWpl"/>
      <point x="143" y="1492" type="line" identifier="RHLvSX2Jv6"/>
      <point x="143" y="994" type="line"/>
      <point x="112" y="853" type="line" identifier="iic1IBkDqp"/>
      <point x="60" y="852" type="line" identifier="lRLJEhXMlO"/>
      <point x="60" y="745" type="line" identifier="8aKgEELrVU"/>
      <point x="158" y="745" type="line" identifier="Dm8zjmbhNr"/>
      <point x="158" y="108" type="line" identifier="xv9CFHiFgB"/>
      <point x="42" y="108" type="line" identifier="YajKQV3MHP"/>
      <point x="42" y="397" type="line" identifier="36SchVkwze"/>
      <point x="40" y="397" type="line" identifier="tVui9PiOjA"/>
    </contour>
  </outline>
</glyph>
<glyph name="six" format="2">
  <advance width="198"/>
  <unicode hex="0036"/>
  <outline>
    <contour>
      <point x="38" y="0" type="line" identifier="uiw6aBUf4P"/>
      <point x="159" y="0" type="line" identifier="jtYkxiUX6G"/>
      <point x="159" y="842" type="line" identifier="2G5L37c87I"/>
      <point x="40" y="842" type="line"/>
      <point x="40" y="1359" type="line"/>
      <point x="72" y="1492" type="line"/>
      <point x="156" y="1492" type="line"/>
      <point x="156" y="1121" type="line"/>
      <point x="158" y="1121" type="line" identifier="Wuidbv6mUe"/>
      <point x="158" y="1600" type="line" identifier="oGvEEuxnYv"/>
      <point x="78" y="1600" type="line" identifier="xR3pEHbMJx"/>
      <point x="38" y="1360" type="line" identifier="KnMArb0tv8"/>
    </contour>
    <contour>
      <point x="157" y="735" type="line"/>
      <point x="157" y="108" type="line"/>
      <point x="40" y="108" type="line"/>
      <point x="40" y="735" type="line"/>
    </contour>
  </outline>
</glyph>
<glyph name="seven" format="2">
  <advance width="192"/>
  <unicode hex="0037"/>
  <outline>
    <contour>
      <point x="101" y="0" type="line"/>
      <point x="103" y="0" type="line" identifier="PiPrv7Kcoy"/>
      <point x="160" y="1395" type="line" identifier="PkvwNC9Tx1"/>
      <point x="160" y="1600" type="line" identifier="tgqM27bPOm"/>
      <point x="39" y="1600" type="line" identifier="36ml4xRICt"/>
      <point x="39" y="1098" type="line" identifier="aaDZsh5Mah"/>
      <point x="41" y="1098" type="line"/>
      <point x="41" y="1492" type="line"/>
      <point x="158" y="1492" type="line"/>
      <point x="158" y="1399" type="line"/>
    </contour>
  </outline>
</glyph>
<glyph name="nine" format="2">
  <advance width="207"/>
  <unicode hex="0039"/>
  <outline>
    <contour>
      <point x="157" y="1600" type="line" identifier="uiw6aBUf4P"/>
      <point x="38" y="1600" type="line" identifier="jtYkxiUX6G"/>
      <point x="38" y="758" type="line" identifier="2G5L37c87I"/>
      <point x="155" y="758" type="line"/>
      <point x="155" y="108" type="line"/>
      <point x="40" y="108" type="line"/>
      <point x="40" y="472" type="line"/>
      <point x="38" y="472" type="line" identifier="Wuidbv6mUe"/>
      <point x="38" y="0" type="line" identifier="oGvEEuxnYv"/>
      <point x="157" y="0" type="line" identifier="xR3pEHbMJx"/>
    </contour>
    <contour>
      <point x="40" y="865" type="line"/>
      <point x="40" y="1492" type="line"/>
      <point x="155" y="1492" type="line"/>
      <point x="155" y="865" type="line"/>
    </contour>
  </outline>
</glyph>
<glyph name="D" format="2">
  <advance width="194"/>
  <unicode hex="0044"/>
  <outline>
    <contour>
      <point x="38" y="0" type="line" identifier="IF8msvcgce"/>
      <point x="125" y="0" type="line" identifier="ydeACnPZN4"/>
      <point x="162" y="241" type="line" identifier="wIy2omw5Da"/>
      <point x="162" y="1600" type="line" identifier="gh4oopoKIn"/>
      <point x="38" y="1600" type="line" identifier="hTYdJwlqIh"/>
    </contour>
    <contour>
      <point x="40" y="108" type="line" identifier="YShvMHvurg"/>
      <point x="40" y="1492" type="line" identifier="OGdfzPVlic"/>
      <point x="160" y="1492" type="line" identifier="4w8cXO1HlF"/>
      <point x="160" y="241" type="line" identifier="5OFemp6E2Y"/>
      <point x="131" y="108" type="line" identifier="DiLdvAK6bW"/>
    </contour>
  </outline>
</glyph>
<glyph name="braceleft" format="2">
  <advance width="167"/>
  <unicode hex="007B"/>
  <outline>
    <contour>
      <point x="59" y="846" type="line"/>
      <point x="59" y="1555" type="line"/>
      <point x="154" y="1555" type="line"/>
      <point x="154" y="1662" type="line"/>
      <point x="57" y="1662" type="line"/>
      <point x="57" y="847" type="line"/>
      <point x="24" y="801" type="line"/>
      <point x="24" y="799" type="line"/>
      <point x="57" y="753" type="line"/>
      <point x="57" y="-62" type="line"/>
      <point x="149" y="-62" type="line"/>
      <point x="149" y="45" type="line"/>
      <point x="59" y="45" type="line"/>
      <point x="59" y="754" type="line"/>
      <point x="26" y="799" type="line"/>
      <point x="26" y="801" type="line"/>
    </contour>
  </outline>
</glyph>
<glyph name="B.skinnymiddle" format="2">
  <advance width="192"/>
  <outline>
    <contour>
      <point x="38" y="0" type="line" identifier="hvY9r8RmLr"/>
      <point x="122" y="0" type="line" identifier="9QFpw7nfq7"/>
      <point x="159" y="240" type="line"/>
      <point x="159" y="853" type="line" identifier="543PerILpr"/>
      <point x="115" y="853" type="line" identifier="zhomauHW30"/>
      <point x="146" y="994" type="line"/>
      <point x="146" y="1600" type="line" identifier="FaP204GrdB"/>
      <point x="38" y="1600" type="line" identifier="JEev70GAj6"/>
    </contour>
    <contour>
      <point x="40" y="108" type="line" identifier="jaMSiLrCua"/>
      <point x="40" y="745" type="line" identifier="XSrxNd2axx"/>
      <point x="157" y="745" type="line" identifier="lsRGatjQja"/>
      <point x="157" y="241" type="line"/>
      <point x="128" y="108" type="line" identifier="xhlDJ3CjD5"/>
    </contour>
    <contour>
      <point x="40" y="852" type="line" identifier="By7dfMihfe"/>
      <point x="40" y="1492" type="line" identifier="1p5hKrurVy"/>
      <point x="144" y="1492" type="line" identifier="Qby8aMtF2X"/>
      <point x="144" y="994" type="line"/>
      <point x="113" y="852" type="line" identifier="xpxyvIzPoc"/>
    </contour>
  </outline>
</glyph>
<glyph name="E.wideskinny" format="2">
  <advance width="156"/>
  <outline>
    <contour>
      <point x="40" y="0" type="line" identifier="fZynkQ4XHB"/>
      <point x="118" y="0" type="line" identifier="FAQNpgUPxV"/>
      <point x="118" y="103" type="line" identifier="5cgTYOhATF"/>
      <point x="42" y="103" type="line" identifier="bWs42DaCgU"/>
      <point x="42" y="751" type="line" identifier="VtD2aADJmn"/>
      <point x="110" y="751" type="line" identifier="PpbsFdHAnS"/>
      <point x="110" y="849" type="line" identifier="8WuC5p8Ax5"/>
      <point x="42" y="849" type="line" identifier="m39IWn9ntA"/>
      <point x="42" y="1499" type="line" identifier="gQ21I4SHQg"/>
      <point x="117" y="1499" type="line" identifier="eqNb2VTwYs"/>
      <point x="117" y="1600" type="line" identifier="qYRmo14Il5"/>
      <point x="40" y="1600" type="line" identifier="HmJIcnLWfC"/>
    </contour>
  </outline>
</glyph>
<glyph name="F.wide" format="2">
  <advance width="183"/>
  <outline>
    <contour>
      <point x="51" y="0" type="line" identifier="oAgH2tA6DJ"/>
      <point x="53" y="0" type="line" identifier="zCZyMcW5ho"/>
      <point x="53" y="741" type="line" identifier="yHYqkMd7LI"/>
      <point x="140" y="741" type="line" identifier="NmB7yyQuio"/>
      <point x="140" y="849" type="line" identifier="wQk2C8zPHh"/>
      <point x="53" y="849" type="line" identifier="4cFHKQfHDt"/>
      <point x="53" y="1492" type="line" identifier="ZvzwyrcwpS"/>
      <point x="146" y="1492" type="line" identifier="4E754ovOIe"/>
      <point x="146" y="1600" type="line" identifier="NUrIjqOB7J"/>
      <point x="51" y="1600" type="line" identifier="TBAYuCfUFX"/>
    </contour>
  </outline>
</glyph>
<glyph name="G.wide" format="2">
  <advance width="192"/>
  <outline>
    <contour>
      <point x="38" y="0" type="line" identifier="7lPhzTnk2Z"/>
      <point x="159" y="0" type="line" identifier="qJVLZGnkwh"/>
      <point x="159" y="918" type="line" identifier="uek1NNj7De"/>
      <point x="95" y="918" type="line" identifier="qcvimxjndX"/>
      <point x="95" y="811" type="line" identifier="EARaY3Su65"/>
      <point x="157" y="811" type="line" identifier="4m6dHLVhZq"/>
      <point x="157" y="108" type="line" identifier="Y750RHTvDj"/>
      <point x="40" y="108" type="line" identifier="L2LsGnXiZ2"/>
      <point x="40" y="1237" type="line" identifier="sUWsr03vF4"/>
      <point x="78" y="1492" type="line" identifier="dbOUe6OhxL"/>
      <point x="158" y="1492" type="line" identifier="5BjRbcud80"/>
      <point x="158" y="1600" type="line" identifier="9eJelv8BOw"/>
      <point x="85" y="1600" type="line" identifier="lfZev3ICaC"/>
      <point x="38" y="1239" type="line" identifier="V1EWIdPahq"/>
    </contour>
  </outline>
</glyph>
<glyph name="I.narrow" format="2">
  <advance width="78"/>
  <outline>
    <contour>
      <point x="40" y="2" type="line" identifier="1m237t4hyw"/>
      <point x="40" y="1598" type="line" identifier="v7N4yg5XNk"/>
      <point x="38" y="1598" type="line" identifier="zfocDyDTCM"/>
      <point x="38" y="2" type="line" identifier="S4rO5KuHiL"/>
    </contour>
  </outline>
</glyph>
<glyph name="N.new" format="2">
  <advance width="211"/>
  <outline>
    <contour>
      <point x="172" y="0" type="line"/>
      <point x="172" y="1600" type="line"/>
      <point x="170" y="1600" type="line"/>
      <point x="170" y="706" type="line"/>
      <point x="169" y="706" type="line"/>
      <point x="57" y="1600" type="line"/>
      <point x="40" y="1600" type="line"/>
      <point x="38" y="1600" type="line"/>
      <point x="38" y="0" type="line"/>
      <point x="40" y="0" type="line"/>
      <point x="40" y="1452" type="line"/>
      <point x="54" y="1452" type="line"/>
      <point x="170" y="546" type="line"/>
      <point x="170" y="0" type="line"/>
    </contour>
  </outline>
</glyph>
<glyph name="N.wide" format="2">
  <advance width="211"/>
  <outline>
    <contour>
      <point x="36" y="0" type="line" identifier="CkwYPPvJLv"/>
      <point x="38" y="0" type="line" identifier="oHTJsN7drZ"/>
      <point x="38" y="1454" type="line" identifier="wfBbYd10Pm"/>
      <point x="55" y="1454" type="line" identifier="MEnBDHq6zU"/>
      <point x="157" y="0" type="line" identifier="3Nbopwznvn"/>
      <point x="176" y="0" type="line" identifier="uKfuudIUvA"/>
      <point x="176" y="1600" type="line" identifier="XRdLFXiM4t"/>
      <point x="174" y="1600" type="line" identifier="MUSJPjCIXg"/>
      <point x="174" y="146" type="line" identifier="VILP20cFmq"/>
      <point x="157" y="146" type="line" identifier="z5b04GDwRN"/>
      <point x="56" y="1600" type="line" identifier="LL64NQ6WBE"/>
      <point x="36" y="1600" type="line" identifier="dzUaaP1sjt"/>
    </contour>
  </outline>
</glyph>
<glyph name="R.wide" format="2">
  <advance width="200"/>
  <outline>
    <contour>
      <point x="145" y="0" type="line"/>
      <point x="147" y="0" type="line"/>
      <point x="101" y="746" type="line"/>
      <point x="99" y="746" type="line"/>
    </contour>
    <contour>
      <point x="38" y="0" type="line" identifier="EG08jqU5fb"/>
      <point x="40" y="0" type="line" identifier="osRzIFK2Cu"/>
      <point x="40" y="742" type="line" identifier="hIFVovVRwe"/>
      <point x="154" y="742" type="line" identifier="Tt6D8zYZmU"/>
      <point x="154" y="1600" type="line" identifier="6xW04auDFu"/>
      <point x="38" y="1600" type="line" identifier="eETO5GBD5v"/>
    </contour>
    <contour>
      <point x="40" y="849" type="line" identifier="PIBVN1PGv1"/>
      <point x="40" y="1492" type="line" identifier="IZIZQr2gYJ"/>
      <point x="152" y="1492" type="line" identifier="2c4LCF1E1R"/>
      <point x="152" y="849" type="line" identifier="1WCnzth1GX"/>
    </contour>
  </outline>
</glyph>
<glyph name="S.wide" format="2">
  <advance width="188"/>
  <outline>
    <contour>
      <point x="40" y="0" type="line" identifier="09VlJ0BjUX"/>
      <point x="114" y="0" type="line" identifier="EagWihqFM8"/>
      <point x="150" y="230" type="line"/>
      <point x="150" y="856" type="line" identifier="KfNuQA7eZe"/>
      <point x="40" y="856" type="line" identifier="At364YZFEy"/>
      <point x="40" y="1354" type="line"/>
      <point x="71" y="1498" type="line"/>
      <point x="144" y="1498" type="line" identifier="3ZUkG35meB"/>
      <point x="144" y="1600" type="line" identifier="SaF9ojRFrW"/>
      <point x="77" y="1600" type="line"/>
      <point x="38" y="1354" type="line"/>
      <point x="38" y="743" type="line" identifier="3sQ8t8BZ6b"/>
      <point x="148" y="743" type="line" identifier="yiV6OCBLHg"/>
      <point x="148" y="231" type="line"/>
      <point x="119" y="104" type="line" identifier="9kdl9SYsn8"/>
      <point x="40" y="104" type="line" identifier="yZDWuX8LLe"/>
    </contour>
  </outline>
</glyph>
<glyph name="Z.wide" format="2">
  <advance width="187"/>
  <outline>
    <contour>
      <point x="32" y="0" type="line"/>
      <point x="152" y="0" type="line" identifier="pzdvPTirLJ"/>
      <point x="152" y="108" type="line"/>
      <point x="34" y="108" type="line"/>
      <point x="34" y="315" type="line"/>
      <point x="152" y="1399" type="line" identifier="yyb1NCCI5w"/>
      <point x="152" y="1600" type="line" identifier="5FogYRSgkk"/>
      <point x="35" y="1600" type="line" identifier="svlFvrau4c"/>
      <point x="35" y="1492" type="line"/>
      <point x="149" y="1492" type="line"/>
      <point x="149" y="1395" type="line"/>
      <point x="32" y="318" type="line" identifier="teVKnpBcVb"/>
    </contour>
  </outline>
</glyph>
<glyph name="eight.skinnymiddle" format="2">
  <advance width="202"/>
  <outline>
    <contour>
      <point x="125" y="746" type="line"/>
      <point x="166" y="694" type="line"/>
      <point x="166" y="108" type="line"/>
      <point x="36" y="108" type="line"/>
      <point x="36" y="694" type="line"/>
      <point x="77" y="746" type="line"/>
    </contour>
    <contour>
      <point x="132" y="799" type="line"/>
      <point x="132" y="801" type="line"/>
      <point x="165" y="844" type="line"/>
      <point x="165" y="1600" type="line"/>
      <point x="37" y="1600" type="line"/>
      <point x="37" y="844" type="line"/>
      <point x="71" y="801" type="line"/>
      <point x="71" y="799" type="line"/>
      <point x="34" y="752" type="line"/>
      <point x="34" y="0" type="line"/>
      <point x="168" y="0" type="line"/>
      <point x="168" y="752" type="line"/>
    </contour>
    <contour>
      <point x="77" y="854" type="line"/>
      <point x="39" y="903" type="line"/>
      <point x="39" y="1492" type="line"/>
      <point x="163" y="1492" type="line"/>
      <point x="163" y="903" type="line"/>
      <point x="125" y="854" type="line"/>
    </contour>
  </outline>
</glyph>
<glyph name="nine.wide" format="2">
  <advance width="154"/>
  <outline>
    <contour>
      <point x="17" y="0" type="line" identifier="oGvEEuxnYv"/>
      <point x="135" y="0" type="line" identifier="xR3pEHbMJx"/>
      <point x="135" y="1600" type="line" identifier="uiw6aBUf4P"/>
      <point x="17" y="1600" type="line" identifier="jtYkxiUX6G"/>
      <point x="17" y="746" type="line" identifier="2G5L37c87I"/>
      <point x="133" y="746" type="line"/>
      <point x="133" y="108" type="line"/>
      <point x="17" y="108" type="line"/>
    </contour>
    <contour>
      <point x="19" y="854" type="line"/>
      <point x="19" y="1492" type="line"/>
      <point x="133" y="1492" type="line"/>
      <point x="133" y="854" type="line"/>
    </contour>
  </outline>
</glyph>
<glyph name="two.wideskinny" format="2">
  <advance width="187"/>
  <outline>
    <contour>
      <point x="30" y="0" type="line"/>
      <point x="151" y="0" type="line" identifier="pzdvPTirLJ"/>
      <point x="151" y="108" type="line"/>
      <point x="32" y="108" type="line"/>
      <point x="32" y="742" type="line"/>
      <point x="145" y="742" type="line" identifier="yyb1NCCI5w"/>
      <point x="145" y="1600" type="line" identifier="5FogYRSgkk"/>
      <point x="33" y="1600" type="line" identifier="svlFvrau4c"/>
      <point x="33" y="1492" type="line"/>
      <point x="143" y="1492" type="line"/>
      <point x="143" y="850" type="line"/>
      <point x="30" y="850" type="line" identifier="teVKnpBcVb"/>
    </contour>
  </outline>
</glyph>
